<?xml version="1.0" encoding="UTF-8"?>
<!DOCTYPE svg PUBLIC "-//W3C//DTD SVG 1.1//EN" "http://www.w3.org/Graphics/SVG/1.1/DTD/svg11.dtd">
<!-- Creator: CorelDRAW 2019 (64-Bit) -->
<svg xmlns="http://www.w3.org/2000/svg" xml:space="preserve" width="7.3478mm" height="8.5636mm" version="1.1" style="shape-rendering:geometricPrecision; text-rendering:geometricPrecision; image-rendering:optimizeQuality; fill-rule:evenodd; clip-rule:evenodd"
viewBox="0 0 350.23 408.18"
 xmlns:xlink="http://www.w3.org/1999/xlink">
 <defs>
  <style type="text/css">
   <![CDATA[
    .fil2 {fill:#FEFEFE}
    .fil1 {fill:#332C2B}
    .fil3 {fill:#E74266}
    .fil0 {fill:#FEFEFE;fill-rule:nonzero}
   ]]>
  </style>
 </defs>
 <g id="Layer_x0020_1">
  <metadata id="CorelCorpID_0Corel-Layer"/>
  <g id="_2280927553808">
   <path class="fil0" d="M134.3 254.96l-60.81 80.17 43.68 59.41c0.09,0.78 -26.57,13.65 -26.57,13.65 -5.52,-0.39 34.53,-0.1 61.1,0l-13.69 -63.87 59.76 -26.4c6.79,-15.17 -63.47,-62.96 -63.47,-62.96z"/>
   <path class="fil0" d="M198.24 331.59l100.43 6.18 25.23 -69.29c0.61,-0.5 26.09,14.55 26.09,14.55 2.73,4.81 -19.22,-28.69 -33.87,-50.86l-39.58 42.36 -52.07 -37.93c-16.39,2.75 -26.24,94.98 -26.24,94.98z"/>
   <path class="fil0" d="M252.81 261.84l-48.15 -82.83c-9.07,-9.31 -103.31,18.44 -99.99,30.6l31.38 123.15 104.16 0 12.61 -70.92z"/>
   <path class="fil0" d="M182.66 195.85l-63.74 20.95c-32.78,10.77 -68.42,-7.23 -79.19,-40.01l-10.48 -31.87c-16.54,-50.31 11.68,-95.34 61.99,-111.88 50.31,-16.54 104.41,1.43 120.95,51.74l10.48 31.87c10.78,32.78 -7.23,68.42 -40.01,79.19z"/>
   <path class="fil1" d="M168.26 125.01c-4.14,-13.37 -15.82,-49.92 -15.82,-49.92l-117.27 40.27c0,0 8.92,30.39 13.04,43.67 4.15,13.37 23.06,32.62 36.42,28.48l67.53 -20.92c13.35,-4.14 20.22,-28.28 16.11,-41.58z"/>
   <path class="fil2" d="M58.83 152.12l30.07 9.39c0,0 -0.29,1.64 -0.5,2.33 -2.65,8.67 -11.63,13.64 -20,11.02 -8.47,-2.64 -13.11,-11.86 -10.46,-20.53 0.21,-0.69 0.89,-2.21 0.89,-2.21z"/>
   <path class="fil2" d="M118.74 152.02l19.83 -24.75c0,0 1.39,0.88 1.95,1.33 6.96,5.71 8.16,16 2.64,22.89 -5.58,6.97 -15.77,7.9 -22.73,2.19 -0.55,-0.45 -1.69,-1.65 -1.69,-1.65z"/>
   <polygon class="fil2" points="125.98,201.88 84.7,239.38 27.13,226.94 30.18,259.28 86.87,280.23 141.96,248.88 "/>
   <polygon class="fil2" points="203.29,232.25 244.64,194.84 302.19,207.39 299.2,175.04 242.55,153.99 187.39,185.22 "/>
   <path class="fil2" d="M32.15 237.04l-23.42 -16.95c0,0 -1.44,4.71 0.08,5.75l9.12 8.24 -13.19 -7.67c0,0 -2.48,4.64 -0.4,6 2.08,1.36 12.71,8.64 12.71,8.64l-16.71 -5.2c0,0 -1.12,3.76 0.8,5.2 1.92,1.36 14.07,5.76 14.07,5.76 0,0 -4.64,5.51 -4.24,6.87 0.32,1.36 2.72,3.28 2.72,3.28l8.08 -5.03 15.27 3.11 -4.88 -17.99z"/>
   <path class="fil2" d="M297.78 199.04l26.15 18.59c0,0 1.62,-5.16 -0.08,-6.3l-10.17 -9.03 14.73 8.43c0,0 2.78,-5.07 0.46,-6.56 -2.32,-1.49 -14.19,-9.47 -14.19,-9.47l18.67 5.72c0,0 1.26,-4.11 -0.88,-5.69 -2.14,-1.49 -15.72,-6.33 -15.72,-6.33 0,0 5.2,-6.02 4.76,-7.51 -0.36,-1.49 -3.03,-3.59 -3.03,-3.59l-9.04 5.49 -17.06 -3.44 5.41 19.69z"/>
   <path class="fil2" d="M187.37 92.36c0,0 31.35,-51.73 24.55,-92.36l38.78 18.39c0,0 -7.44,63.41 -63.33,73.97z"/>
   <path class="fil2" d="M196.09 90.44c0,0 59.31,-11.89 84.64,-44.37l12.67 41.01c0,0 -51.74,37.4 -97.32,3.36z"/>
   <path class="fil3" d="M85.64 101.92c6.93,0 12.55,5.69 12.55,12.7 0,7.02 -5.61,12.71 -12.55,12.71 -6.93,0 -12.55,-5.69 -12.55,-12.71 0,-7.02 5.62,-12.7 12.55,-12.7z"/>
   <path class="fil2" d="M43.36 146.32c0,0 123.41,-41.59 126.71,-42.79 3.31,-1.2 -0.19,7.6 -0.19,7.6l-126.83 40.95 0.3 -5.75z"/>
  </g>
 </g>
</svg>
